<svg xmlns="http://www.w3.org/2000/svg" xmlns:xlink="http://www.w3.org/1999/xlink" aria-hidden="true" role="img" class="icon text-amber-600" style="" width="36px" height="36px" viewBox="0 0 24 24" data-v-c3ad5561=""><g fill="none" stroke="#22c55e" stroke-linecap="round" stroke-width="2"><path stroke-dasharray="60" stroke-dashoffset="60" d="M12 3C16.9706 3 21 7.02944 21 12C21 16.9706 16.9706 21 12 21C7.02944 21 3 16.9706 3 12C3 7.02944 7.02944 3 12 3Z"><animate fill="freeze" attributeName="stroke-dashoffset" dur="0.5s" values="60;0"></animate></path><path d="M12 12H12" opacity="0"><animate fill="freeze" attributeName="d" begin="1.2s" dur="0.2s" values="M12 12H12;M12 12H6.5"></animate><set attributeName="opacity" begin="1.2s" to="1"></set><animateTransform fill="freeze" attributeName="transform" begin="1.4s" dur="0.6s" type="rotate" values="0 12 12;115 12 12"></animateTransform></path></g><g fill="#22c55e"><path fill-opacity="0" d="M12 21C9.41 21 7.15 20.79 5.94 19L12 21L18.06 19C16.85 20.79 14.59 21 12 21Z"><set attributeName="fill-opacity" begin="0.5s" to="1"></set><animate fill="freeze" attributeName="d" begin="0.5s" dur="0.4s" values="M12 21C9.41 21 7.15 20.79 5.94 19L12 21L18.06 19C16.85 20.79 14.59 21 12 21Z;M12 16C9.41 16 7.15 17.21 5.94 19L12 21L18.06 19C16.85 17.21 14.59 16 12 16Z"></animate></path><circle cx="7" cy="12" r="0" transform="rotate(15 12 12)"><animate fill="freeze" attributeName="r" begin="0.8s" dur="0.2s" values="0;1"></animate></circle><circle cx="7" cy="12" r="0" transform="rotate(65 12 12)"><animate fill="freeze" attributeName="r" begin="0.85s" dur="0.2s" values="0;1"></animate></circle><circle cx="7" cy="12" r="0" transform="rotate(115 12 12)"><animate fill="freeze" attributeName="r" begin="0.9s" dur="0.2s" values="0;1"></animate></circle><circle cx="7" cy="12" r="0" transform="rotate(165 12 12)"><animate fill="freeze" attributeName="r" begin="0.95s" dur="0.2s" values="0;1"></animate></circle><circle cx="12" cy="12" r="0"><animate fill="freeze" attributeName="r" begin="1.2s" dur="0.2s" values="0;2"></animate></circle></g></svg>