<svg width="17" height="22" viewBox="0 0 17 22" fill="none" xmlns="http://www.w3.org/2000/svg">
<path d="M6.625 1H2.125C1.504 1 1 1.504 1 2.125V19.375C1 19.996 1.504 20.5 2.125 20.5H14.875C15.496 20.5 16 19.996 16 19.375V10.375M6.625 1H7C9.38695 1 11.6761 1.94821 13.364 3.63604C15.0518 5.32387 16 7.61305 16 10V10.375M6.625 1C7.52011 1 8.37855 1.35558 9.01149 1.98851C9.64442 2.62145 10 3.47989 10 4.375V5.875C10 6.496 10.504 7 11.125 7H12.625C13.5201 7 14.3786 7.35558 15.0115 7.98851C15.6444 8.62145 16 9.47989 16 10.375M5.5 13.75L7.75 16L11.5 10.75" stroke-width="1.5" stroke-linecap="round" stroke-linejoin="round"/>
</svg>
