<svg width="22" height="22" viewBox="0 0 22 22" fill="none" xmlns="http://www.w3.org/2000/svg">
<path d="M15.166 17.5H6.166M15.166 17.5C15.9616 17.5 16.7247 17.8161 17.2873 18.3787C17.8499 18.9413 18.166 19.7044 18.166 20.5H3.166C3.166 19.7044 3.48207 18.9413 4.04468 18.3787C4.60729 17.8161 5.37035 17.5 6.166 17.5M15.166 17.5V14.125C15.166 13.504 14.663 13 14.041 13H13.17M6.166 17.5V14.125C6.166 13.504 6.67 13 7.291 13H8.163M13.17 13H8.163M13.17 13C12.6083 12.03 12.2727 10.9457 12.188 9.828M8.163 13C8.72432 12.0299 9.05964 10.9456 9.144 9.828M12.188 9.828C13.196 9.59538 14.1357 9.13341 14.936 8.478M12.188 9.828C11.1865 10.059 10.1455 10.059 9.144 9.828M9.144 9.828C8.1364 9.59524 7.19604 9.13327 6.396 8.478M3.916 2.986C2.934 3.129 1.962 3.303 1 3.506C1.223 4.81479 1.87358 6.01273 2.84994 6.91238C3.82631 7.81202 5.07337 8.36261 6.396 8.478M3.916 2.986V3.25C3.916 5.358 4.882 7.24 6.396 8.478M3.916 2.986V1.471C6.122 1.16 8.376 1 10.666 1C12.957 1 15.211 1.16 17.416 1.47V2.986M17.416 2.986V3.25C17.416 5.358 16.45 7.24 14.936 8.478M17.416 2.986C18.3933 3.1282 19.3658 3.30163 20.332 3.506C20.1091 4.81464 19.4586 6.01246 18.4824 6.91209C17.5063 7.81172 16.2584 8.3624 14.936 8.478"  stroke-width="1.5" stroke-linecap="round" stroke-linejoin="round"/>
</svg>
